<svg xmlns="http://www.w3.org/2000/svg" xmlns:xlink="http://www.w3.org/1999/xlink" version="1.0" x="0px" y="0px" viewBox="0 0 240 240" style="enable-background:new 0 0 240 240;" xml:space="preserve"><g><g><path d="M121,162.9l7.5-4.3c0.7-0.4,0.7-1.3,0-1.7l-7.5-4.3c-0.6-0.4-1.4-0.4-2,0l-7.5,4.3c-0.7,0.4-0.7,1.3,0,1.7l7.5,4.3    C119.6,163.3,120.4,163.3,121,162.9z" fill="#e35f21"/></g><g><path d="M146,109.2l-22-12.7c-1.2-0.7-2.6-1.1-4-1.1c-1.4,0-2.8,0.4-4,1.1l-22,12.7c-2.5,1.4-4,4.1-4,6.9v25.4    c0,2.9,1.5,5.5,4,6.9l5,2.9c0.6,0.4,1.4,0.4,2,0l7.5-4.3c0.7-0.4,0.7-1.3,0-1.7l-6.5-3.8c-1.2-0.7-2-2-2-3.5v-18.5    c0-1.4,0.8-2.7,2-3.5l16-9.2c0.6-0.4,1.3-0.5,2-0.5s1.4,0.2,2,0.5l16,9.2c1.2,0.7,2,2,2,3.5v18.5c0,1.4-0.8,2.7-2,3.5l-6.5,3.8    c-0.7,0.4-0.7,1.3,0,1.7l7.5,4.3c0.6,0.4,1.4,0.4,2,0l5-2.9c2.5-1.4,4-4.1,4-6.9v-25.4C150,113.3,148.5,110.7,146,109.2z" fill="#e35f21"/><path d="M146,167l-5-2.9c-0.6-0.4-1.4-0.4-2,0l-7.5,4.3c-0.7,0.4-0.7,1.3,0,1.7l6.5,3.8c1.2,0.7,2,2,2,3.5v18.5    c0,1.4-0.8,2.7-2,3.5l-16,9.2c-0.6,0.4-1.3,0.5-2,0.5s-1.4-0.2-2-0.5l-16-9.2c-1.2-0.7-2-2-2-3.5v-18.5c0-1.4,0.8-2.7,2-3.5    l6.5-3.8c0.7-0.4,0.7-1.3,0-1.7l-7.5-4.3c-0.6-0.4-1.4-0.4-2,0l-5,2.9c-2.5,1.4-4,4.1-4,6.9v25.4c0,2.9,1.5,5.5,4,6.9l22,12.7    c1.2,0.7,2.6,1.1,4,1.1s2.8-0.4,4-1.1l22-12.7c2.5-1.4,4-4.1,4-6.9v-25.4C150,171,148.5,168.4,146,167z" fill="#e35f21"/></g></g><path d="M214.4,58.4l-37-32c-4.7-4.1-12.2-6.4-20.4-6.4H83c-8.2,0-15.7,2.3-20.4,6.4l-37,32C22,61.6,20,65.7,20,70  c0,4.3,2,8.4,5.6,11.6l37,32c3.7,3.2,9.1,5.3,15.2,6.1c1.2,0.2,2.3-0.8,2.3-2v-6.1c0-1-0.7-1.8-1.7-2c-3.8-0.6-7.1-1.9-9.2-3.6  l-37-32c-2.5-2.2-2.5-5.8,0-8l37-32c2.9-2.5,8.1-4,13.9-4h74c5.7,0,11,1.5,13.9,4l37,32c2.5,2.2,2.5,5.8,0,8l-37,32  c-2.1,1.8-5.3,3.1-9.2,3.6c-1,0.2-1.7,1-1.7,2v6.1c0,1.2,1.1,2.1,2.3,2c6.1-0.8,11.5-2.9,15.2-6.1l37-32c3.6-3.1,5.6-7.2,5.6-11.6  C220,65.7,218,61.6,214.4,58.4z" fill="#e35f21"/><g><path d="M78.3,195.6c-3.8-0.6-7.1-1.9-9.2-3.6l-37-32c-2.5-2.2-2.5-5.8,0-8l1.5-1.3c0.9-0.8,0.9-2.2,0-3l-4.6-4   c-0.8-0.6-1.9-0.7-2.6,0l-0.8,0.7C22,147.6,20,151.7,20,156c0,4.3,2,8.4,5.6,11.6l37,32c3.7,3.2,9.1,5.3,15.2,6.1   c1.2,0.2,2.3-0.8,2.3-2v-6.1C80,196.6,79.3,195.8,78.3,195.6z" fill="#e35f21"/><path d="M214.4,144.4l-0.8-0.7c-0.8-0.6-1.9-0.6-2.6,0l-4.6,4c-0.9,0.8-0.9,2.2,0,3l1.5,1.3c2.5,2.2,2.5,5.8,0,8l-37,32   c-2.1,1.8-5.3,3.1-9.2,3.6c-1,0.2-1.7,1-1.7,2v6.1c0,1.2,1.1,2.1,2.3,2c6.1-0.8,11.5-2.9,15.2-6.1l37-32c3.6-3.1,5.6-7.2,5.6-11.6   C220,151.7,218,147.6,214.4,144.4z" fill="#e35f21"/></g><g><path d="M214.4,101.4l-0.8-0.7c-0.8-0.6-1.9-0.6-2.6,0l-4.6,4c-0.9,0.8-0.9,2.2,0,3l1.5,1.3c2.5,2.2,2.5,5.8,0,8l-37,32   c-2.1,1.8-5.3,3.1-9.2,3.6c-0.2,0-0.3,0.1-0.5,0.1c-0.2,0-0.4,0.1-0.5,0.2l-6.9,4c-0.6,0.4-0.6,1.2,0,1.6l6.9,4   c0.4,0.2,0.9,0.3,1.3,0.2c0.1,0,0.1,0,0.2,0c6.1-0.8,11.5-2.9,15.2-6.1l37-32c3.6-3.1,5.6-7.2,5.6-11.6   C220,108.7,218,104.6,214.4,101.4z" fill="#e35f21"/><path d="M86.2,156.9l-6.9-4c-0.2-0.1-0.4-0.2-0.5-0.2c-0.1-0.1-0.3-0.1-0.5-0.1c-3.8-0.6-7.1-1.9-9.2-3.6l-37-32   c-2.5-2.2-2.5-5.8,0-8l1.5-1.3c0.9-0.8,0.9-2.2,0-3l-4.6-4c-0.8-0.7-1.9-0.7-2.6,0l-0.8,0.7C22,104.6,20,108.7,20,113   c0,4.3,2,8.4,5.6,11.6l37,32c3.7,3.2,9.1,5.3,15.2,6.1c0.1,0,0.1,0,0.2,0c0.4,0.1,0.9,0,1.3-0.2l6.9-4   C86.8,158.2,86.8,157.3,86.2,156.9z" fill="#e35f21"/></g></svg>